<svg xmlns="http://www.w3.org/2000/svg" width="25.474" height="22.389" viewBox="0 0 25.474 22.389">
  <g id="Group_14967" data-name="Group 14967" transform="translate(0)">
    <g id="Group_14961" data-name="Group 14961">
      <g id="Group_14945" data-name="Group 14945">
        <path id="Path_37626" data-name="Path 37626" d="M-2575.51,616.688c-.216.728-.437,1.453-.646,2.182q-1.17,4.077-2.333,8.154a.764.764,0,0,1-.879.658q-6.307,0-12.612-.005a.413.413,0,0,0-.411.253.8.8,0,0,0,.788,1.258c4.1-.022,8.193-.011,12.289-.01a.754.754,0,0,1,.815.64.743.743,0,0,1-.755.849c-.763,0-1.525,0-2.289,0h-.247a2.458,2.458,0,0,1,1.4.961,2.119,2.119,0,0,1,.373,1.628,2.221,2.221,0,0,1-2.246,1.889,2.247,2.247,0,0,1-2.185-1.908c-.194-1.121.457-2.052,1.806-2.561h-6.657a2.4,2.4,0,0,1,1.436,1.01,2.2,2.2,0,0,1,.31,1.713,2.24,2.24,0,0,1-2.316,1.745,2.257,2.257,0,0,1-2.094-1.927,2.329,2.329,0,0,1,1.848-2.55h-1.642a2.222,2.222,0,0,1-2.027-3.267,1.426,1.426,0,0,0,.094-1.141q-1.7-5.871-3.361-11.755a.3.3,0,0,0-.354-.262c-.92.012-1.841.006-2.761,0a.744.744,0,0,1-.817-.741.742.742,0,0,1,.809-.749q1.766,0,3.532,0a.758.758,0,0,1,.828.631c.224.778.445,1.556.672,2.354h.324q9.179,0,18.358-.007a.9.9,0,0,1,.95.553Zm-1.743.554h-17.462q1.282,4.485,2.553,8.937h12.356C-2578.953,623.2-2578.1,620.226-2577.252,617.242Zm-11.741,15.674a.77.77,0,0,0-.739-.753.77.77,0,0,0-.753.738.771.771,0,0,0,.738.754A.77.77,0,0,0-2588.994,632.916Zm7.513-.009a.785.785,0,0,0-.747-.745.785.785,0,0,0-.744.747.77.77,0,0,0,.747.745A.769.769,0,0,0-2581.481,632.907Z" transform="translate(2600.984 -612.758)" fill="#4a4a4a"/>
      </g>
    </g>
  </g>
</svg>
