<svg xmlns="http://www.w3.org/2000/svg" width="90.179" height="82.997" viewBox="0 0 90.179 82.997">
  <g id="Group_26052" data-name="Group 26052" transform="translate(0.001 -8.404)">
    <path id="Path_39461" data-name="Path 39461" d="M-675.252,323.808l-65.558-.093v-1.606l65.669-.1Z" transform="translate(753.355 -313.608)" fill="#ff9800"/>
    <path id="Path_39463" data-name="Path 39463" d="M-764.43,465.255h-36.276c-1.416,0-1.557-.141-1.557-1.562q0-16.465,0-32.93c0-1.355.176-1.54,1.5-1.54q36.364,0,72.728,0c1.337,0,1.508.177,1.508,1.532q0,16.465,0,32.93c0,1.438-.13,1.571-1.543,1.571Zm36.1-34.206h-72.1v32.4h72.1Z" transform="translate(809.092 -395.816)" fill="#ff9800"/>
    <path id="Path_39464" data-name="Path 39464" d="M-735.051,607.237h-27.12c-.264,0-.529.006-.792-.006-.566-.025-.952-.373-.849-.885.066-.328.493-.622.817-.844.161-.11.457-.026.692-.026h54.593c.205,0,.466-.078.605.019.344.238.835.517.9.851.109.56-.33.89-.932.89l-.7,0Z" transform="translate(780.094 -530.279)" fill="#ff9800"/>
    <path id="Path_39465" data-name="Path 39465" d="M-735.084,637.9H-762.2c-.264,0-.529.008-.792-.006a.825.825,0,0,1-.878-.894.833.833,0,0,1,.918-.857c.205,0,.411,0,.616,0h54.593c.206,0,.465-.078.606.018.345.236.836.514.9.847.11.561-.332.889-.931.894-.235,0-.47,0-.7,0Z" transform="translate(780.129 -553.731)" fill="#ff9800"/>
    <g id="Group_26060" data-name="Group 26060">
      <path id="Path_39460" data-name="Path 39460" d="M-832.954,332.1c.173-.643.327-1.293.522-1.93a11.691,11.691,0,0,1,12.109-8.218v1.572A33.54,33.54,0,0,0-823.7,324a9.834,9.834,0,0,0-7.469,9.235c-.055,2.2-.01,4.4-.01,6.653h86.74a69.515,69.515,0,0,0-.375-8.351,9.706,9.706,0,0,0-9.253-7.869c-.409-.017-.819,0-1.314,0v-1.752a11.574,11.574,0,0,1,8.269,2.614,11.29,11.29,0,0,1,4.326,9.055q.029,29.76,0,59.521a11.657,11.657,0,0,1-11.676,11.724q-33.414.029-66.829,0a11.676,11.676,0,0,1-11.5-9.727,3.1,3.1,0,0,0-.168-.48Zm1.761,9.661v.91q0,25.051,0,50.1a9.943,9.943,0,0,0,10.338,10.3q32.976.008,65.952,0a9.945,9.945,0,0,0,10.359-10.369q.009-25.007,0-50.014v-.931Z" transform="translate(832.953 -313.445)" fill="#ff9800"/>
      <text id="_1_WEEK" data-name="1 WEEK" transform="translate(21.828 56.404)" fill="#ff9800" font-size="14" font-family="Poppins-Medium, Poppins" font-weight="500"><tspan x="0" y="0">1 WEEK</tspan></text>
    </g>
  </g>
</svg>
