<svg xmlns="http://www.w3.org/2000/svg" width="90.099" height="95.388" viewBox="0 0 90.099 95.388">
  <g id="Group_26051" data-name="Group 26051" transform="translate(-2.686 -0.645)">
    <path id="Path_39434" data-name="Path 39434" d="M-1177-82.027a11.417,11.417,0,0,1-11.743-.049c-.178,1.113-.289,2.061-.485,2.991a9.62,9.62,0,0,1-6,7.4c-3.212,1.289-6.515,2.349-9.763,3.551-2.636.975-5.313,1.89-7.3,4.056a19.744,19.744,0,0,0-3.788,5.88c-.071.174-.135.351-.222.516a1.072,1.072,0,0,1-1.5.552,1.006,1.006,0,0,1-.554-1.407c1.807-4.4,4.317-8.255,8.881-10.175,3.361-1.414,6.853-2.516,10.283-3.766.733-.267,1.446-.591,2.18-.854,3.818-1.362,5.552-4.206,5.9-8.113a2.361,2.361,0,0,0-1.2-2.575,23.252,23.252,0,0,1-9.665-11.959,1.1,1.1,0,0,0-.7-.572,9.858,9.858,0,0,1-7.543-8.047,1.4,1.4,0,0,0-.485-.884,3.6,3.6,0,0,1-1.786-3.028,19.142,19.142,0,0,1,.43-4.165,7.817,7.817,0,0,0,.137-3.11,34.814,34.814,0,0,1,.756-14.875c1.395-5.484,3.752-10.476,7.978-14.394a26.508,26.508,0,0,1,13.3-7.089,12.517,12.517,0,0,1,6.567.443,1.288,1.288,0,0,0,.793.043c3.871-1.369,7.607-.691,11.224.859a27.651,27.651,0,0,1,16.376,18.734,36.077,36.077,0,0,1,.968,17.338,3.7,3.7,0,0,0,.1,1.183,47.931,47.931,0,0,1,.645,4.891,3.537,3.537,0,0,1-1.833,3.189,1.146,1.146,0,0,0-.429.723,9.805,9.805,0,0,1-7.6,8.2,1.1,1.1,0,0,0-.674.6,23.725,23.725,0,0,1-9.988,12.164,1.733,1.733,0,0,0-.886,1.813c.208,4.176,1.952,7.24,6.057,8.685.883.311,1.744.684,2.627,1,2.8.989,5.6,1.939,8.393,2.948,5.111,1.85,8.1,5.758,10.132,10.566.3.7.223,1.345-.528,1.649-.728.295-1.216-.064-1.558-.773-.611-1.263-1.237-2.525-1.964-3.723a14,14,0,0,0-7.7-5.962c-3.213-1.119-6.446-2.186-9.621-3.406a17.853,17.853,0,0,1-4.117-2.176c-2.667-1.949-3.58-4.859-3.909-8-.023-.217-.05-.433-.078-.649A1.313,1.313,0,0,0-1177-82.027Zm-16.128-36.853c1.392.321,2.755.616,4.106.956.56.141.986.478.807,1.149s-.682.676-1.268.631c-1.745-.134-3.493-.256-5.241-.291a2.012,2.012,0,0,0-1.283.531c-1.882,1.787-3.725,3.615-5.548,5.462a1.632,1.632,0,0,0-.449,1.035,38.619,38.619,0,0,0,1.36,10.1c2.4,8.762,8.069,14.226,16.793,16.565a4.112,4.112,0,0,0,1.938.023,22.042,22.042,0,0,0,14.558-10.789c2.835-4.946,3.572-10.476,3.68-16.1a1.391,1.391,0,0,0-.451-.851c-1.812-1.815-3.625-3.629-5.492-5.385a2.279,2.279,0,0,0-1.445-.589c-1.748.027-3.5.167-5.24.3-.569.043-1.009-.053-1.172-.652-.169-.624.218-.923.728-1.117a6.412,6.412,0,0,1,1.061-.365c1.052-.2,2.113-.356,3.207-.536l-10.361-11.479Zm37.325,1.59c.071-.548.141-.916.163-1.286a37.572,37.572,0,0,0-1.878-14.219c-2.724-8.23-8.284-13.653-16.39-16.524a11.718,11.718,0,0,0-7.185-.421c-.346.1-.84.236-.956.495-.779,1.735-1.684,3.505-1.033,5.474.488,1.475,1.179,2.883,1.793,4.315,1.055,2.458,1.474,4.91-.077,7.339.209.252.38.474.568.681,4,4.392,7.89,8.888,12.031,13.141,3.527,3.624,7.326,6.983,11.047,10.414a1.735,1.735,0,0,0,1.482.4,1.925,1.925,0,0,0,.766-1.354,8.941,8.941,0,0,0-.053-2.238,10.07,10.07,0,0,0-3.2-6.1,1.079,1.079,0,0,1-.04-1.724,1.069,1.069,0,0,1,1.649.163C-1156.718-118.3-1156.328-117.864-1155.806-117.29Zm-28.729-32.573a17.629,17.629,0,0,0-3.424-.2,23.437,23.437,0,0,0-17.344,11.211c-3.958,6.24-5.161,13.255-4.729,20.575a7.722,7.722,0,0,0,.188.957c.406-.459.7-.814,1.022-1.152.769-.817,1.352-.94,1.915-.422s.469,1.119-.255,1.946a19.235,19.235,0,0,0-1.684,2.127,9.382,9.382,0,0,0-1.386,6.1c.119,1.373,1.083,1.779,2.141.961.717-.554,1.42-1.129,2.1-1.73,8.115-7.2,15.274-15.3,22.4-23.446a3.829,3.829,0,0,0,.808-3.858,43.3,43.3,0,0,0-1.642-4.073,8.4,8.4,0,0,1-1.043-4.685C-1185.256-146.927-1184.887-148.276-1184.535-149.863Zm-21.836,43.7a9.422,9.422,0,0,0-1.21.784,1,1,0,0,0-.328.722,7.6,7.6,0,0,0,4.943,5.674c-.306-1.638-.554-3.269-.951-4.863a1.484,1.484,0,0,0-1.064-.859A1.31,1.31,0,0,1-1206.371-106.159Zm43.629,7.266a7.952,7.952,0,0,0,4.6-4.447c.635-1.431.547-1.645-.7-2.509-.144-.1-.3-.187-.493-.306-.022.973-.464,1.368-1.392,1.454a1.475,1.475,0,0,0-1.055.858C-1162.171-102.256-1162.418-100.631-1162.742-98.893Z" transform="translate(1231.125 153.045)" fill="#db0406"/>
    <path id="Path_39435" data-name="Path 39435" d="M-981.61,106.941a5.784,5.784,0,0,1-5.79-5.867,5.837,5.837,0,0,1,5.8-5.786,5.857,5.857,0,0,1,5.849,5.842A5.811,5.811,0,0,1-981.61,106.941Zm.035-2.247a3.564,3.564,0,0,0,3.568-3.582,3.591,3.591,0,0,0-3.6-3.569,3.574,3.574,0,0,0-3.55,3.6A3.512,3.512,0,0,0-981.575,104.693Z" transform="translate(1058.002 -32.538)" fill="#db0406"/>
    <path id="Path_39436" data-name="Path 39436" d="M-1252.911,30.419a5.37,5.37,0,0,1-5.357-5.371,5.431,5.431,0,0,1,5.469-5.376,5.379,5.379,0,0,1,5.291,5.44A5.331,5.331,0,0,1-1252.911,30.419Zm.02-2.254a3.075,3.075,0,0,0,3.141-3.038,3.156,3.156,0,0,0-3.107-3.2,3.173,3.173,0,0,0-3.152,3.161A3.118,3.118,0,0,0-1252.891,28.165Z" transform="translate(1260.954 24.119)" fill="#db0406"/>
    <path id="Path_39437" data-name="Path 39437" d="M-923.025,38.733a3.981,3.981,0,0,1-4,4.058,4.021,4.021,0,0,1-4.062-4.018,4.089,4.089,0,0,1,4.07-4.04A4.034,4.034,0,0,1-923.025,38.733Zm-2.258.083a1.776,1.776,0,0,0-1.742-1.824,1.832,1.832,0,0,0-1.8,1.789,1.776,1.776,0,0,0,1.719,1.753A1.736,1.736,0,0,0-925.283,38.816Z" transform="translate(1015.81 12.834)" fill="#db0406"/>
    <path id="Path_39438" data-name="Path 39438" d="M-1244.591-31.275a4.007,4.007,0,0,1-4.028-3.962,4.057,4.057,0,0,1,4.016-4.089,4.08,4.08,0,0,1,4.04,3.986A4.024,4.024,0,0,1-1244.591-31.275Zm-.015-2.26a1.764,1.764,0,0,0,1.791-1.771,1.817,1.817,0,0,0-1.819-1.766,1.786,1.786,0,0,0-1.733,1.746A1.75,1.75,0,0,0-1244.606-33.535Z" transform="translate(1253.724 68.323)" fill="#db0406"/>
    <path id="Path_39439" data-name="Path 39439" d="M-934.23-59.01a3.9,3.9,0,0,1,4.03-3.809,3.94,3.94,0,0,1,3.831,3.935,3.988,3.988,0,0,1-3.955,3.93A3.948,3.948,0,0,1-934.23-59.01Zm3.956,1.8a1.744,1.744,0,0,0,1.656-1.7,1.687,1.687,0,0,0-1.769-1.655,1.646,1.646,0,0,0-1.591,1.721A1.7,1.7,0,0,0-930.275-57.21Z" transform="translate(1018.166 85.926)" fill="#db0406"/>
    <path id="Path_39440" data-name="Path 39440" d="M-1204.6,122.018a3.4,3.4,0,0,1,3.361-3.429,3.429,3.429,0,0,1,3.434,3.46,3.433,3.433,0,0,1-3.42,3.381A3.4,3.4,0,0,1-1204.6,122.018Zm4.548.042a1.116,1.116,0,0,0-1.093-1.192,1.058,1.058,0,0,0-1.193,1.054,1.1,1.1,0,0,0,1.111,1.234A1.141,1.141,0,0,0-1200.053,122.06Z" transform="translate(1220.743 -49.997)" fill="#db0406"/>
    <path id="Path_39452" data-name="Path 39452" d="M-1099.353,72.442a16.345,16.345,0,0,1,1.739-.169c1.541-.009,3.077.125,4.623-.008.952-.082,1.924.092,2.884.061.553-.018,1.04-.016,1.181.606.146.641-.333.9-.836,1.038a19.081,19.081,0,0,1-1.909.445c-1.026.181-2.06.326-3.092.473a3.038,3.038,0,0,1-.832.036c-1.187-.165-2.374-.333-3.552-.55a7.538,7.538,0,0,1-1.877-.54,1.1,1.1,0,0,1-.533-.9c.059-.26.538-.515.875-.6A4.775,4.775,0,0,1-1099.353,72.442Z" transform="translate(1143.542 -15.271)" fill="#db0406"/>
    <path id="Path_39453" data-name="Path 39453" d="M-1049.942,17.213a26.656,26.656,0,0,1-2.62-1.105,1.1,1.1,0,0,1-.289-1.013,1.009,1.009,0,0,1,.9-.4c1.98.491,3.754-.166,5.553-.829a6.132,6.132,0,0,1,2.07-.411,1.858,1.858,0,0,1,1.176.644c.363.4.248.765-.373.925a7.18,7.18,0,0,0-1.8.682A12.336,12.336,0,0,1-1049.942,17.213Z" transform="translate(1107.063 28.78)" fill="#db0406"/>
    <path id="Path_39454" data-name="Path 39454" d="M-1132.871,17.2c-1.389-.475-2.735-.923-4.071-1.4-.748-.266-1.473-.6-2.22-.864-.557-.2-.622-.653-.254-.909a3.555,3.555,0,0,1,1.743-.655,4.47,4.47,0,0,1,1.686.487,8.733,8.733,0,0,0,5.372.767,1.007,1.007,0,0,1,.89.413,1.112,1.112,0,0,1-.314,1.01C-1130.9,16.5-1131.843,16.8-1132.871,17.2Z" transform="translate(1172.076 28.835)" fill="#db0406"/>
    <path id="Path_39455" data-name="Path 39455" d="M-1086.078,47.944c-1.017-.528-1.946-.929-2.783-1.472a.987.987,0,0,1-.177-1.561,1.018,1.018,0,0,1,1.573-.135,1.871,1.871,0,0,0,2.757-.023,1.01,1.01,0,0,1,1.565.189.97.97,0,0,1-.164,1.494C-1084.139,46.989-1085.062,47.4-1086.078,47.944Z" transform="translate(1134.382 5.542)" fill="#db0406"/>
    <path id="Path_39456" data-name="Path 39456" d="M-1083.127,90.309a12.247,12.247,0,0,1-1.62-.454,1,1,0,0,1-.586-1.385,1.139,1.139,0,0,1,1.355-.709,8.046,8.046,0,0,0,1.71-.033c.631-.067,1.133.073,1.347.706a1.027,1.027,0,0,1-.6,1.387A15.2,15.2,0,0,1-1083.127,90.309Z" transform="translate(1131.449 -26.862)" fill="#db0406"/>
    <path id="Path_39457" data-name="Path 39457" d="M-1059.945-103.393a47.981,47.981,0,0,1,5.01,1.712,36.281,36.281,0,0,1,10.38,7.912c.7.713,1.374,1.454,2.036,2.2.772.873.851,1.525.292,2.027s-1.146.282-1.977-.515c-2.5-2.4-4.963-4.844-7.606-7.076a15.715,15.715,0,0,0-7.4-3.654,8.3,8.3,0,0,0-.929-.11c-1.038-.065-1.5-.418-1.5-1.156.005-.775.528-1.133,1.608-1.1Z" transform="translate(1113.623 116.326)" fill="#db0406"/>
    <path id="Path_39458" data-name="Path 39458" d="M-1150.433-100.919c-.212.163-.579.69-.973.711-4.052.22-7.2,2.366-10.135,4.826-2.218,1.861-4.2,4-6.284,6.025-.134.13-.239.289-.37.422a1.064,1.064,0,0,1-1.583.163,1.044,1.044,0,0,1-.081-1.65c1.542-1.636,3.054-3.308,4.7-4.84a28.25,28.25,0,0,1,8.856-6.027,23.616,23.616,0,0,1,4.611-1.09C-1150.887-102.515-1150.4-101.964-1150.433-100.919Z" transform="translate(1194.986 115.58)" fill="#db0406"/>
  </g>
</svg>
