<svg xmlns="http://www.w3.org/2000/svg" width="90.399" height="90.425" viewBox="0 0 90.399 90.425">
  <g id="Group_26054" data-name="Group 26054" transform="translate(-18.291 -606.788)">
    <path id="Path_39473" data-name="Path 39473" d="M39.992,693.036c-8.954-9.723-13.16-21.151-12.329-34.3a43.734,43.734,0,0,1,13.074-28.828,45.2,45.2,0,0,1,59.659-3.869l3.579-3.572-3.193-3.167c-.225-.223-.453-.443-.67-.673a1.056,1.056,0,1,1,1.493-1.482q2.373,2.328,4.728,4.674,5.37,5.374,10.727,10.762c.156.157.315.313.46.479a1.046,1.046,0,1,1-1.485,1.473c-.981-.944-1.94-1.91-2.893-2.883-.353-.36-.662-.763-.923-1.068l-3.631,3.627c8.237,11.18,11.225,23.743,8.243,37.521a43.9,43.9,0,0,1-16.923,26.225,45.231,45.231,0,0,1-58.351-3.38c-.237.22-.488.438-.722.672q-4.638,4.631-9.274,9.263c-.223.223-.449.567-.707.6A1.739,1.739,0,0,1,29.6,704.9c-.228-.209-.212-.8-.136-1.188.052-.265.384-.482.607-.706q4.631-4.637,9.266-9.27C39.554,693.518,39.759,693.286,39.992,693.036Zm24.7-37.437L41.436,632.346c-15.96,16.514-15.476,43.151.019,58.982l3.241-3.161c-1.788-2.888-1.575-4.619.9-7.1.739-.739,1.5-1.457,2.2-2.231a1.065,1.065,0,0,0,.237-.879,6.685,6.685,0,0,1,1.863-7.6C54.877,665.446,59.806,660.482,64.693,655.6Zm14.346,14.282c-.174.166-.429.4-.672.64q-7.223,7.217-14.446,14.434a6.342,6.342,0,0,1-7.14,1.6.9.9,0,0,0-1.137.274q-1.374,1.446-2.818,2.824a4.562,4.562,0,0,1-6.065.435c-.145-.1-.3-.2-.29-.192l-3.242,3.17c16.08,15.918,43.37,15.675,59,0Zm-12.778-16.2,18.468-18.449c-.666-.654-1.411-1.385-2.155-2.117-.526-.518-.687-1.109-.118-1.657a1.042,1.042,0,0,1,1.594.131c.786.781,1.583,1.552,2.349,2.352,1.023,1.067,2.021,2.156,2.97,3.172l9.534-9.527a43.143,43.143,0,0,0-55.764,2.977Zm31.305-8.564c1.743,1.736,3.532,3.525,5.329,5.306.535.531.818,1.125.2,1.728s-1.213.317-1.724-.236c-.7-.755-1.394-1.511-2-2.164L80.861,668.264l23.1,23.1c14.712-14.8,15.768-39.6,2.955-55.615Zm-11.234-7.948L68.074,655.421,79.165,666.51l5.684-5.694a5.454,5.454,0,0,1-.7-.52q-2.3-2.27-4.572-4.564c-.758-.76-.886-1.4-.334-1.862.76-.641,1.323-.173,1.869.388.817.84,1.657,1.656,2.483,2.487.91.916,1.815,1.837,2.6,2.633l4.938-4.946c-.649-.636-1.369-1.347-2.1-2.052-.516-.5-.766-1.081-.22-1.659.587-.621,1.2-.385,1.724.171.705.756,1.4,1.526,2.03,2.219l4.887-4.847Zm-20.106,19.87q-4.652,4.659-9.318,9.331c-1.969,1.971-3.956,3.923-5.9,5.914a4.257,4.257,0,0,0-.041,6.2q2.6,2.64,5.242,5.233a4.086,4.086,0,0,0,5.46.343,50.376,50.376,0,0,0,3.834-4.092c-.582-.552-1.312-1.25-2.05-1.941-.553-.519-.819-1.121-.221-1.725s1.208-.322,1.724.223l2.023,2.133,5.1-5.079a5.975,5.975,0,0,1-.875-.616q-2.37-2.33-4.7-4.7a1.021,1.021,0,0,1-.048-1.593,1,1,0,0,1,1.518.083c.409.4.811.8,1.213,1.2,1.443,1.448,2.885,2.9,4.175,4.192l4-3.972Zm39.345-32.756L91.333,638.523l4.725,4.661,14.206-14.2ZM54.237,685.245l-4.887-4.9c-.939.936-2,1.929-2.982,2.991a2.386,2.386,0,0,0,.011,3.414c.441.493.911.963,1.4,1.411a2.454,2.454,0,0,0,3.5.024C52.336,687.2,53.335,686.145,54.237,685.245Z" transform="translate(-9.269 -9.822)" fill="#17d8ab"/>
  </g>
</svg>
